<?xml version="1.0" encoding="UTF-8" standalone="no"?>
<!-- Created with Inkscape (http://www.inkscape.org/) -->

<svg
   xmlns:dc="http://purl.org/dc/elements/1.1/"
   xmlns:cc="http://creativecommons.org/ns#"
   xmlns:rdf="http://www.w3.org/1999/02/22-rdf-syntax-ns#"
   xmlns:svg="http://www.w3.org/2000/svg"
   xmlns="http://www.w3.org/2000/svg"
   xmlns:sodipodi="http://sodipodi.sourceforge.net/DTD/sodipodi-0.dtd"
   xmlns:inkscape="http://www.inkscape.org/namespaces/inkscape"
   width="350"
   height="200"
   viewBox="0 0 350 200"
   id="svg2"
   version="1.1"
   inkscape:version="0.91 r13725"
   sodipodi:docname="motorcycle-icon-vector.svg">
  <defs
     id="defs4" />
  <sodipodi:namedview
     id="base"
     pagecolor="#ffffff"
     bordercolor="#666666"
     borderopacity="1.0"
     inkscape:pageopacity="0.0"
     inkscape:pageshadow="2"
     inkscape:zoom="1.979899"
     inkscape:cx="430.55356"
     inkscape:cy="38.910414"
     inkscape:document-units="px"
     inkscape:current-layer="layer1"
     showgrid="false"
     units="px"
     fit-margin-top="0"
     fit-margin-left="0"
     fit-margin-right="0"
     fit-margin-bottom="0"
     inkscape:window-width="2744"
     inkscape:window-height="1582"
     inkscape:window-x="1170"
     inkscape:window-y="542"
     inkscape:window-maximized="0" />
  <metadata
     id="metadata7">
    <rdf:RDF>
      <cc:Work
         rdf:about="">
        <dc:format>image/svg+xml</dc:format>
        <dc:type
           rdf:resource="http://purl.org/dc/dcmitype/StillImage" />
        <dc:title></dc:title>
      </cc:Work>
    </rdf:RDF>
  </metadata>
  <g
     inkscape:label="Layer 1"
     inkscape:groupmode="layer"
     id="layer1"
     transform="translate(356.60712,-778.96935)">
    <path
       style="fill:#000000"
       d="m -296.33065,979.14648 c -5.62548,-0.43924 -7.62374,-1.05351 -14.28313,-4.39064 -9.93271,-4.97746 -16.7138,-10.28057 -22.02654,-17.22576 -11.81689,-15.44786 -14.39523,-35.07778 -7.02506,-53.48447 5.8141,-14.52049 18.10796,-25.80903 33.45066,-30.71528 6.93291,-2.21698 11.60501,-2.86499 18.55681,-2.57377 10.23616,0.42882 18.42053,2.97745 27.03996,8.4203 1.5404,0.9727 2.94137,1.62721 3.11329,1.45446 0.17191,-0.17275 0.31257,-0.93629 0.31257,-1.69678 0,-1.06273 0.2308,-1.43976 0.99735,-1.62926 1.08971,-0.26939 5.00686,-6.47297 5.00686,-7.92933 0,-0.98673 -2.94612,-2.769 -4.5772,-2.769 -0.61623,0 -4.89199,-2.16609 -9.5017,-4.81351 -9.22867,-5.30017 -22.89805,-12.65992 -27.06107,-14.56998 -1.46769,-0.67341 -4.94071,-2.3218 -7.71783,-3.66309 l -5.0493,-2.43871 -7.39347,0.30304 -7.39346,0.30304 -2.67895,2.06846 c -5.34796,4.12926 -12.65663,12.58641 -24.80583,28.70377 -4.19489,5.56501 -7.88731,10.11821 -8.20538,10.11821 -1.10781,0 -0.56234,-1.73625 1.86786,-5.94542 1.34538,-2.33026 2.44615,-4.33358 2.44615,-4.45184 0,-0.11827 -0.4503,-0.27963 -1.00069,-0.35859 -0.70343,-0.10088 -0.96819,-0.40738 -0.89125,-1.03164 0.0602,-0.48844 2.43486,-5.46109 5.27702,-11.05034 4.6692,-9.18222 5.31275,-10.22292 6.67308,-10.7913 0.82803,-0.34598 1.50025,-0.77647 1.49381,-0.95665 -0.007,-0.18018 -0.3817,-1.72858 -0.83392,-3.44089 -0.81019,-3.06767 -0.84696,-3.11734 -2.50932,-3.38902 -2.55606,-0.41774 -3.59798,-2.34136 -2.25961,-4.17171 0.46188,-0.63165 1.4506,-0.91711 4.02989,-1.16349 1.87981,-0.17955 3.89549,-0.63944 4.4793,-1.02197 0.58381,-0.38253 2.62307,-1.11839 4.53169,-1.63526 2.07409,-0.56169 3.93526,-1.37652 4.62618,-2.02537 1.02907,-0.96643 1.13267,-1.33984 0.94372,-3.40166 -0.11675,-1.27382 -0.3774,-2.63566 -0.57924,-3.02629 -0.9524,-1.84318 -6.38311,-8.68311 -8.3905,-10.56774 -2.2129,-2.07759 -2.64732,-2.87697 -1.83595,-3.37843 0.69198,-0.42767 17.28365,2.56078 18.85889,3.39682 0.57509,0.30522 1.25796,0.22036 2.3335,-0.29002 1.45967,-0.69266 1.71178,-0.66743 6.30308,0.63085 7.47263,2.11302 14.55988,3.15208 24.57426,3.60281 5.01463,0.2257 10.61856,0.61096 12.45317,0.85614 2.97603,0.39771 3.48059,0.60947 4.67965,1.96403 0.74684,0.84369 1.78902,2.90013 2.34569,4.6285 1.25451,3.89516 2.40605,5.42674 4.08011,5.42674 0.69093,0 3.2282,0.98585 5.63836,2.19078 3.85087,1.92521 5.08307,2.30177 10.16395,3.10611 8.67964,1.37406 19.753,2.31976 26.24063,2.24106 3.18001,-0.0386 6.17966,7.1e-4 6.66587,0.0876 0.71156,0.12695 0.99953,-0.23275 1.476,-1.84368 1.66152,-5.61759 1.82764,-5.88106 6.74489,-10.69781 8.05626,-7.89163 22.03531,-16.51389 30.33639,-18.71145 4.09057,-1.08292 10.6104,-1.2368 16.82036,-0.39701 1.83462,0.2481 4.83673,0.65475 6.67134,0.90367 2.29348,0.31117 5.55481,1.34487 10.43827,3.30845 l 7.10259,2.85588 3.49808,-2.08081 c 3.06975,-1.82602 3.63324,-2.36652 4.60194,-4.41417 0.60712,-1.28336 0.98709,-2.52231 0.84436,-2.75323 -0.35051,-0.56714 1.49959,-1.81501 2.69094,-1.81501 0.52725,0 1.71254,-0.315 2.634,-0.70001 1.18552,-0.49535 2.30614,-0.61325 3.83278,-0.40329 1.7594,0.24197 2.20842,0.16382 2.43387,-0.42367 0.15204,-0.39621 1.13815,-1.22539 2.19136,-1.84261 1.60142,-0.93849 2.37488,-1.10039 4.72455,-0.9889 2.41193,0.11443 2.82951,0.25921 2.94997,1.02281 0.0771,0.48923 0.4493,1.91629 0.82694,3.17126 0.5429,1.80424 0.57674,2.48698 0.16165,3.26256 -0.75178,1.40474 -0.40478,1.48785 1.96722,0.47108 2.574808,-1.10368 3.467858,-1.12878 4.353798,-0.12236 1.20616,1.3702 1.20503,4.05735 -0.004,9.33553 -0.62978,2.74955 -1.02941,5.11481 -0.88807,5.25615 0.28547,0.28547 4.21689,-0.79857 5.62058,-1.5498 0.494,-0.26439 1.75103,-1.77788 2.79339,-3.36331 1.39238,-2.1178 2.39206,-3.11616 3.76785,-3.76286 2.22979,-1.04812 2.61476,-2.19071 2.16214,-6.4172 -0.20308,-1.89632 -0.14112,-2.93656 0.187,-3.13934 0.85151,-0.52627 0.55753,-0.91807 -2.08943,-2.78476 -3.34864,-2.36153 -9.46893,-4.87878 -13.2948,-5.46809 -3.183798,-0.49042 -3.571998,-0.76683 -5.626568,-4.00636 -0.54299,-0.85616 -1.73685,-2.04405 -2.65302,-2.63977 -3.04847,-1.98219 -2.615,-4.15226 0.99127,-4.96253 1.02685,-0.23072 3.2041,-1.31649 4.83834,-2.41281 3.434738,-2.30419 4.617778,-2.47127 5.739798,-0.81062 0.94867,1.40412 3.51607,3.97748 4.89319,4.90459 0.92021,0.61949 1.06706,0.5621 2.37622,-0.92897 1.52307,-1.73468 4.1424,-2.76906 5.89691,-2.32871 0.60859,0.15274 1.94663,0.97962 2.97345,1.83749 1.02681,0.85788 2.0127,1.46968 2.19089,1.35955 0.17818,-0.11013 0.59242,-1.01368 0.92055,-2.0079 0.91644,-2.77684 1.426,-2.97897 3.88176,-1.5398 4.30827,2.52482 8.13192,7.127 8.13192,9.78767 0,0.47678 -0.41976,1.65004 -0.93278,2.60725 -0.80068,1.49388 -0.94851,2.62686 -1.04372,7.99903 l -0.1109,6.25864 2.48916,2.46355 c 3.19575,3.16287 7.89569,9.02487 9.60526,11.98018 0.73385,1.26859 1.79746,3.01873 2.3636,3.88917 0.82228,1.26431 0.9704,1.9314 0.73638,3.31658 -0.24853,1.47099 -0.0646,2.1192 1.21249,4.27443 3.32747,5.61529 3.31801,6.77537 -0.11108,13.62363 -1.78816,3.57113 -2.60908,4.76131 -3.49779,5.07112 -0.63868,0.22265 -1.65869,0.82995 -2.26668,1.34957 -0.608,0.51962 -5.70869,4.073 -11.33486,7.89639 -10.06087,6.83712 -11.92428,8.18889 -11.65689,8.45629 0.0741,0.0741 1.22605,-0.15584 2.56007,-0.51082 1.33402,-0.35497 4.72709,-0.96662 7.54017,-1.35922 4.32275,-0.60328 5.7505,-0.62984 9.22089,-0.17152 5.07585,0.67035 6.302,1.61739 3.08951,2.38621 -1.76949,0.42348 -1.24,1.35783 0.8443,1.48989 5.22233,0.33085 15.27687,3.64698 20.75073,6.84389 16.10963,9.40854 25.6002002,24.87665 26.4483102,43.10652 0.94868,20.39163 -10.2203702,39.4413 -28.5788702,48.74354 -6.10349,3.09263 -8.64168,4.00111 -13.53986,4.84628 -5.92759,1.02279 -15.76933,1.35179 -19.72249,0.65931 -6.23932,-1.09296 -15.60075,-5.34405 -21.62361,-9.81943 -4.54708,-3.37879 -10.897428,-10.22074 -13.493468,-14.53809 -2.87966,-4.78914 -5.3117,-10.57827 -6.58937,-15.68527 -0.92712,-3.70582 -1.05269,-5.20923 -1.02157,-12.2308 0.0312,-7.042 0.16792,-8.50079 1.13581,-12.1196 0.60517,-2.2627 0.98899,-4.10681 0.85293,-4.098 -0.13606,0.009 -0.78008,0.45911 -1.43115,1.0007 -1.32695,1.1038 -4.25467,6.72638 -8.50252,16.3288 -4.47387,10.11333 -4.2957,9.176 -2.39143,12.58117 2.31046,4.13148 2.21417,4.53068 -1.58082,6.55336 -1.61914,0.86298 -2.71903,0.8795 -58.56745,0.8795 l -56.91735,0 -2.2765,4.35318 c -6.67702,12.76794 -17.38393,21.98902 -31.63213,27.24251 -5.93146,2.18699 -15.46752,3.27837 -23.30094,2.66673 z m 7.22729,-21.60798 c 0.98258,-0.30637 0.59599,-2.15465 -0.9271,-4.43238 -0.81568,-1.21982 -2.15427,-3.58954 -2.97466,-5.26605 -0.8204,-1.67652 -1.80418,-3.15379 -2.18619,-3.28284 -3.88715,-1.31315 -6.07157,-2.71496 -8.76655,-5.62578 -1.59904,-1.72711 -3.29306,-3.89629 -3.7645,-4.82038 -0.47144,-0.9241 -1.01702,-1.68019 -1.2124,-1.68019 -0.19537,0 -2.09264,1.77549 -4.21614,3.94554 -3.56227,3.64033 -3.86092,4.08442 -3.86092,5.74106 0,1.46586 0.36517,2.2438 1.98887,4.23707 3.45659,4.24333 7.62501,7.25289 13.23123,9.55283 4.50294,1.84732 9.80782,2.52928 12.68836,1.63112 z m 233.349508,0.41828 c 1.13855,-0.43689 0.82632,-1.41829 -1.26999,-3.99173 -1.08543,-1.33247 -2.09947,-2.81956 -2.25342,-3.30464 -0.29885,-0.94157 -0.5342,-1.01957 -5.33534,-1.76818 -1.79358,-0.27966 -4.3105,-1.09067 -5.93762,-1.91324 -3.42749,-1.73272 -7.79144,-5.58285 -8.98933,-7.93089 -0.48398,-0.9487 -1.09598,-1.7249 -1.35997,-1.7249 -0.75784,0 -5.62718,5.00617 -5.94458,6.11161 -0.5916,2.06046 6.73258,8.39144 13.33553,11.52717 4.60017,2.18461 15.20469,3.97335 17.75472,2.9948 z m -220.609778,-2.37842 c 4.67162,-2.00248 8.63793,-5.02375 13.07835,-9.96215 2.33533,-2.59726 2.77971,-3.34354 2.66853,-4.48151 -0.115,-1.17708 -0.31736,-1.37241 -1.46766,-1.41661 -0.73385,-0.0282 -1.76922,-0.0782 -2.30085,-0.11119 -0.53162,-0.033 -1.58835,-0.58311 -2.3483,-1.22257 -1.38137,-1.16233 -1.3827,-1.1625 -5.03765,-0.60757 -3.27868,0.4978 -8.80468,2.71994 -15.44194,6.20958 -1.05391,0.55411 -0.60831,2.52744 1.58237,7.00762 2.71712,5.55679 4.70477,6.54007 9.26715,4.5844 z m 231.294988,-0.65722 c 4.65425,-2.05833 9.09805,-5.64453 12.54551,-10.12439 2.43702,-3.16682 5.92491,-10.3089 6.26208,-12.82278 l 0.25419,-1.89504 -3.29164,0.31536 c -5.33596,0.51122 -5.16026,0.39879 -7.06474,4.52103 -1.39531,3.02012 -2.36871,4.35632 -5.25005,7.20686 -3.83228,3.79128 -6.13917,5.33049 -9.76781,6.51726 -1.28423,0.42002 -2.33496,1.02577 -2.33496,1.34613 0,0.32036 0.90021,1.80532 2.00047,3.29993 2.31667,3.14696 2.90322,3.2913 6.64695,1.63564 z m -10.82303,-14.0658 c -1.17887,-0.98175 -1.5473,-0.92117 -1.12296,0.18463 0.15424,0.40193 0.70933,0.72414 1.23356,0.71599 0.93854,-0.0146 0.93685,-0.0283 -0.1106,-0.90062 z m 3.95463,-0.34745 c 0,-0.5024 -2.26648,-1.51122 -2.61412,-1.16358 -0.34167,0.34167 1.23861,1.53694 2.03199,1.53694 0.32017,0 0.58213,-0.16801 0.58213,-0.37336 z m -13.79426,-0.84971 c -0.003,-0.42809 -0.17887,-1.04987 -0.38916,-1.38176 -0.53467,-0.84383 -1.07893,0.12681 -0.71466,1.27454 0.34688,1.0929 1.1131,1.16733 1.10382,0.10726 z m 5.78864,-0.037 c 0,-0.57911 -0.52871,-0.96425 -0.9588,-0.69844 -0.45997,0.28429 -0.0633,1.06908 0.5403,1.06908 0.23017,0 0.4185,-0.16679 0.4185,-0.37064 z m 10.87429,-0.91365 c -0.65319,-0.61029 -2.42392,-1.04777 -2.42392,-0.59883 0,0.67911 0.54431,0.9936 1.71973,0.9936 0.67687,0 0.95802,-0.15761 0.70419,-0.39477 z m -19.65754,-1.59084 c -0.11748,-0.61453 -0.39084,-1.00776 -0.60749,-0.87387 -0.45534,0.28142 -0.52842,1.68719 -0.10946,2.10613 0.54301,0.54302 0.92939,-0.12105 0.71697,-1.23226 z m -19.52168,0.17661 c 0.64292,-0.50572 2.09662,-2.12507 3.23043,-3.59854 1.98252,-2.57645 2.05124,-2.76553 1.79413,-4.9365 -0.18458,-1.55852 -0.61539,-2.62068 -1.39143,-3.4307 -0.61824,-0.6453 -1.12406,-1.59122 -1.12406,-2.10205 0,-0.51083 -0.30022,-1.04398 -0.66714,-1.18479 -0.9943,-0.38154 -0.80607,-1.86163 0.33357,-2.62292 0.95598,-0.63859 0.96616,-0.70692 0.22766,-1.52889 -0.42518,-0.47323 -0.89544,-1.47242 -1.04504,-2.22041 -0.21987,-1.09937 -0.0724,-1.49977 0.76931,-2.08936 0.96695,-0.67729 1.04158,-1.03065 1.04504,-4.9486 0.003,-3.54557 -0.10813,-4.21923 -0.69706,-4.21923 -1.04809,0 -2.30624,1.60428 -4.33787,5.53127 -1.37157,2.65111 -1.70551,3.67528 -1.34141,4.114 0.26663,0.32127 0.75107,0.58413 1.07652,0.58413 1.21364,0 2.88918,1.06277 2.75448,1.74712 -0.1067,0.54227 -0.73401,0.69904 -2.79706,0.69904 l -2.65949,0 -0.34827,3.78042 c -0.43069,4.67502 -0.13739,8.18529 1.03848,12.42855 1.46204,5.27595 1.93419,5.73193 4.13921,3.99746 z m 34.93271,-1.20035 c 2.12431,-1.05557 2.35636,-1.95871 0.41288,-1.60691 -2.02935,0.36734 -4.50491,1.59377 -4.74103,2.3488 -0.24632,0.78766 2.03795,0.39611 4.32815,-0.74189 z m 6.85946,0.55207 c 0.0428,-0.2385 -0.47255,-0.49696 -1.14524,-0.57437 -1.33656,-0.15378 -1.70112,0.61943 -0.44476,0.94328 1.03108,0.26578 1.49541,0.15805 1.59,-0.36891 z m -24.60615,-1.8204 c 0,-0.62801 -0.19355,-0.99227 -0.44475,-0.83701 -0.24462,0.15117 -0.44475,0.77521 -0.44475,1.38676 0,0.628 0.19355,0.99227 0.44475,0.83701 0.24461,-0.15117 0.44475,-0.77521 0.44475,-1.38676 z m -247.204998,-0.31731 c 6.98907,-7.01048 7.9261,-8.34276 7.9261,-11.26943 0,-3.77389 2.27355,-8.62648 5.22588,-11.15391 1.28423,-1.09941 2.33498,-2.2605 2.33498,-2.5802 0,-0.31971 -1.91218,-1.72233 -4.24926,-3.11692 -4.50516,-2.68831 -6.61507,-3.18295 -8.73583,-2.04795 -1.63049,0.87261 -3.87177,4.62634 -5.59877,9.37689 -1.30313,3.58455 -1.58423,5.02931 -1.77168,9.10579 -0.25714,5.59211 0.43707,10.37972 1.74644,12.04433 0.48587,0.61768 1.05476,1.12306 1.26421,1.12306 0.20944,0 1.04552,-0.66675 1.85793,-1.48166 z m 274.112758,-0.29737 c 0.15864,-0.25667 -0.25346,-0.44188 -0.97445,-0.43794 -0.97006,0.005 -1.1002,0.10319 -0.5822,0.43794 0.85451,0.55223 1.21536,0.55223 1.55665,0 z m -28.24202,-2.97592 c 0,-0.32017 -0.17874,-0.58213 -0.39718,-0.58213 -0.46938,0 -0.9429,1.10251 -0.92295,2.14897 0.0122,0.64002 0.10385,0.62335 0.66714,-0.12138 0.35914,-0.47484 0.65299,-1.12529 0.65299,-1.44546 z m 4.02319,0.34548 c -0.27304,-0.51019 -0.70135,-0.92761 -0.95179,-0.92761 -0.44918,0 -0.23852,0.57099 0.61927,1.67858 0.65956,0.85163 0.89982,0.30902 0.33252,-0.75097 z m 23.74293,0.0123 c 0.13405,-0.2169 -0.0365,-0.6269 -0.37891,-0.91111 -0.69325,-0.57535 -1.40316,0.0858 -0.92421,0.86071 0.34032,0.55067 0.97867,0.57535 1.30312,0.0504 z m -20.65002,-3.16371 c 0,-0.24462 -0.20014,-0.44476 -0.44476,-0.44476 -0.24462,0 -0.44476,0.20014 -0.44476,0.44476 0,0.24461 0.20014,0.44476 0.44476,0.44476 0.24462,0 0.44476,-0.20015 0.44476,-0.44476 z m 8.56659,-1.89022 c 0.21482,-0.62738 -0.90662,-2.55734 -1.486,-2.55734 -0.58934,0 -1.39477,1.77682 -1.1246,2.48091 0.29923,0.77975 2.34925,0.83978 2.6106,0.0764 z m 10.55793,-1.8875 c 0,-0.82579 -0.21163,-2.05809 -0.47029,-2.73842 -0.37651,-0.99028 -0.55254,-1.10692 -0.88271,-0.5849 -0.91729,1.45033 -0.13195,5.74251 0.93055,5.08585 0.23235,-0.1436 0.42245,-0.93674 0.42245,-1.76253 z m 17.12312,0.84347 c 2.8465,-0.47382 3.33567,-0.88944 3.33567,-2.83416 0,-2.011 -1.03577,-7.25335 -2.06769,-10.4652 -1.1262,-3.50532 -4.73635,-9.0901 -7.80065,-12.06735 -5.83081,-5.66516 -9.09417,-7.02743 -8.38227,-3.49912 0.0494,0.24462 -0.15695,2.03052 -0.45845,3.96869 l -0.54818,3.52393 1.28944,1.07339 c 4.11297,3.42384 6.0415,5.68196 7.61345,8.91464 1.44075,2.96287 1.68666,3.93098 1.8298,7.20333 0.185,4.22936 0.57247,5.03684 2.25764,4.70492 0.63372,-0.12482 1.95277,-0.36019 2.93124,-0.52307 z m -13.11139,-0.85692 c 0.9165,-1.10432 0.0519,-1.35962 -1.00963,-0.29812 -0.78438,0.78439 -0.8363,0.976 -0.26448,0.976 0.39134,0 0.96468,-0.30505 1.27411,-0.67788 z m -31.58663,-2.98717 c 0,-0.45699 -0.34017,-0.42503 -1.37596,0.12931 -0.48,0.25689 -0.75777,0.65307 -0.61727,0.8804 0.27379,0.44301 1.99323,-0.428 1.99323,-1.00971 z m 31.30782,-0.4541 c 0.67225,-1.06573 -0.13379,-1.59456 -0.87836,-0.57628 -0.34693,0.47444 -0.63078,1.0412 -0.63078,1.25944 0,0.59503 0.98381,0.14969 1.50914,-0.68316 z m -28.19452,-0.5508 c 0,-0.36693 -0.30021,-0.66713 -0.66713,-0.66713 -0.36693,0 -0.66713,0.3002 -0.66713,0.66713 0,0.36692 0.3002,0.66714 0.66713,0.66714 0.36692,0 0.66713,-0.30022 0.66713,-0.66714 z m 27.04198,-2.65265 c 0.60455,-1.32683 -0.10407,-1.986 -0.77904,-0.72472 -0.25689,0.48001 -0.46707,1.08603 -0.46707,1.34673 0,0.86122 0.73819,0.49273 1.24611,-0.62201 z m -1.69768,-3.46275 c 0.009,-1.0601 -0.75694,-0.98568 -1.10382,0.10726 -0.36427,1.14773 0.17998,2.11837 0.71465,1.27455 0.2103,-0.33188 0.38543,-0.95367 0.38917,-1.38175 z m -2.88411,-0.77832 c -0.21518,-0.34817 -0.47102,-0.37401 -0.76753,-0.0775 -0.24462,0.24462 -0.2995,0.67978 -0.12197,0.96703 0.21517,0.34817 0.47102,0.37401 0.76752,0.0775 0.24462,-0.24462 0.29951,-0.67977 0.12198,-0.96702 z m -5.1147,-3.30942 c 0,-0.10792 -0.20013,-0.31983 -0.44474,-0.471 -0.24462,-0.15119 -0.44476,-0.063 -0.44476,0.19612 0,0.25905 0.20014,0.47101 0.44476,0.47101 0.24461,0 0.44474,-0.0883 0.44474,-0.19613 z m -7.05888,-1.72335 c -0.50711,-0.50712 -1.05978,-0.78426 -1.22815,-0.61589 -0.42833,0.42834 1.1935,2.12916 1.71999,1.80377 0.23973,-0.14816 0.022,-0.67407 -0.49184,-1.18788 z m 3.94559,1.02996 c 0,-0.24462 -0.20014,-0.44476 -0.44476,-0.44476 -0.24461,0 -0.44474,0.20014 -0.44474,0.44476 0,0.24462 0.20013,0.44476 0.44474,0.44476 0.24462,0 0.44476,-0.20014 0.44476,-0.44476 z M -289.443,906.96861 c -0.003,-0.30578 -0.13353,-1.03221 -0.28932,-1.6143 -0.27427,-1.02476 -0.38262,-1.0491 -3.41475,-0.7673 -1.72231,0.16008 -3.22176,0.38132 -3.3321,0.49165 -0.49512,0.49513 1.05706,1.55936 2.31557,1.58764 0.76505,0.0172 1.79128,0.20327 2.28051,0.4135 1.32421,0.56903 2.44696,0.51787 2.44009,-0.11119 z m 208.097828,0.1541 c 0.71759,-0.45452 0.28936,-1.37719 -0.63917,-1.37719 -0.35249,0 -0.64089,0.40029 -0.64089,0.88952 0,0.96561 0.32812,1.09062 1.28006,0.48767 z m 7.61506,-1.82194 c 0,-0.24461 -0.20013,-0.44476 -0.44475,-0.44476 -0.24461,0 -0.44476,0.20015 -0.44476,0.44476 0,0.24462 0.20015,0.44475 0.44476,0.44475 0.24462,0 0.44475,-0.20013 0.44475,-0.44475 z M -289.11649,901.7339 c 6.06147,-0.7387 11.25999,-1.42867 11.55225,-1.53328 0.90046,-0.32224 1.15549,-3.06708 0.44334,-4.77146 -2.25737,-5.40269 -17.66085,-5.72126 -27.8825,-0.57666 -5.5737,2.80527 -5.74342,4.35213 -0.73354,6.68553 1.74884,0.81454 3.72418,1.49402 4.38965,1.50996 0.66548,0.0159 6.16933,-0.57539 12.2308,-1.31409 z m 212.717848,0.65387 c 0,-0.59379 -1.39609,-2.86883 -1.76047,-2.86883 -0.22186,0 -0.54145,0.43507 -0.71023,0.96681 -0.2144,0.67557 -0.0639,1.1445 0.4998,1.55665 0.8135,0.59485 1.9709,0.79767 1.9709,0.34537 z m 26.8893,-1.42337 c 0.1645,-0.42809 0.4125,-2.38304 0.55111,-4.34433 0.19844,-2.80765 0.11444,-3.6802 -0.39501,-4.10299 -1.05597,-0.87639 -5.9711,-1.95274 -8.24991,-1.80663 l -2.11713,0.13574 0.11067,1.77818 c 0.0609,0.97799 -0.1893,2.81005 -0.55594,4.07125 -1.06985,3.68014 -1.05424,3.70784 2.11311,3.74862 1.52885,0.0197 3.68035,0.29376 4.78112,0.60905 2.82663,0.80962 3.42211,0.79555 3.76198,-0.0889 z m -31.33687,-2.22151 c 0,-0.54259 -0.12454,-0.56377 -0.66713,-0.11347 -0.36692,0.30452 -0.66713,0.85389 -0.66713,1.22081 0,0.54258 0.12455,0.56377 0.66713,0.11347 0.36693,-0.30452 0.66713,-0.85389 0.66713,-1.22081 z M -245.2078,891.55238 c 0.28382,-0.45923 -3.21861,-3.39354 -3.59787,-3.01426 -0.34933,0.34933 2.18029,3.41994 2.81742,3.41996 0.29134,10e-6 0.64254,-0.18256 0.78045,-0.4057 z m 13.5892,-4.65712 c 0,-1.57178 0.67648,-2.03308 3.00211,-2.0472 1.14263,-0.007 1.32167,-0.96505 0.33356,-1.78509 -0.36693,-0.30452 -0.66713,-0.81509 -0.66713,-1.13459 0,-0.94433 -1.31364,-1.97871 -2.51291,-1.97871 -1.16197,0 -8.81533,3.30312 -9.88891,4.26795 -0.50695,0.45562 0.004,0.87011 2.89092,2.34568 2.17947,1.11393 4.13793,1.80069 5.17453,1.81451 1.60301,0.0213 1.66783,-0.0363 1.66783,-1.48255 z m -9.13297,-6.93836 c 2.61076,-1.21912 4.63219,-2.40206 4.49207,-2.62879 -0.24355,-0.39407 -8.92695,-5.38405 -9.36916,-5.38405 -0.28292,0 -4.22495,7.86294 -4.22495,8.42728 0,0.5963 2.22231,1.76233 3.40068,1.78431 0.52498,0.01 3.0906,-0.97965 5.70136,-2.19875 z m 120.96943,-59.60457 c 1.51389,-1.65597 2.57498,-3.46653 2.29605,-3.91785 -0.1356,-0.2194 -1.70393,-0.40429 -3.4852,-0.41087 -3.20078,-0.0119 -4.80497,0.60462 -4.78901,1.8403 0.003,0.26785 1.05419,1.67781 2.33497,3.13324 2.15472,2.44854 2.33981,2.56482 2.47768,1.55665 0.082,-0.59927 0.60643,-1.58994 1.16551,-2.20147 z m 20.626258,-5.2259 c 1.47964,-4.54628 1.2625,-5.33507 -1.312908,-4.76942 -1.27942,0.28102 -1.35127,0.40274 -1.13515,1.92317 0.69286,4.87427 0.88694,5.84836 1.16518,5.84836 0.1682,0 0.745488,-1.35095 1.282878,-3.00211 z m 2.29845,-6.78253 c 0,-0.56605 -0.29651,-0.88951 -0.81538,-0.88951 -1.31225,0 -1.5173,0.57593 -0.42165,1.18421 1.30382,0.72383 1.23703,0.73974 1.23703,-0.2947 z m 27.65488,-8.48362 c 0.45193,-2.11679 0.0611,-3.16288 -1.11889,-2.99478 -0.76441,0.10891 -0.99129,0.48675 -1.1024,1.83599 -0.24832,3.01587 1.61706,3.989 2.22129,1.15879 z"
       id="path4149"
       inkscape:connector-curvature="0" />
  </g>
</svg>
