<?xml version="1.0" encoding="UTF-8" standalone="no"?>
<!-- Created with Inkscape (http://www.inkscape.org/) -->
<svg id="svg2" xmlns:rdf="http://www.w3.org/1999/02/22-rdf-syntax-ns#" xmlns="http://www.w3.org/2000/svg" version="1.1" xmlns:cc="http://creativecommons.org/ns#" xmlns:dc="http://purl.org/dc/elements/1.1/" viewBox="0 0 350 200">
 <metadata id="metadata7">
  <rdf:RDF>
   <cc:Work rdf:about="">
    <dc:format>image/svg+xml</dc:format>
    <dc:type rdf:resource="http://purl.org/dc/dcmitype/StillImage"/>
    <dc:title/>
   </cc:Work>
  </rdf:RDF>
 </metadata>
 <g id="layer1" transform="translate(356.61 -778.97)">
  <path id="path4149" d="m-296.33 979.15c-5.6255-0.43924-7.6237-1.0535-14.283-4.3906-9.9327-4.9775-16.714-10.281-22.027-17.226-11.817-15.448-14.395-35.078-7.0251-53.484 5.8141-14.52 18.108-25.809 33.451-30.715 6.9329-2.217 11.605-2.865 18.557-2.5738 10.236 0.42882 18.421 2.9774 27.04 8.4203 1.5404 0.9727 2.9414 1.6272 3.1133 1.4545 0.17191-0.17275 0.31257-0.93629 0.31257-1.6968 0-1.0627 0.2308-1.4398 0.99735-1.6293 1.0897-0.26939 5.0069-6.473 5.0069-7.9293 0-0.98673-2.9461-2.769-4.5772-2.769-0.61623 0-4.892-2.1661-9.5017-4.8135-9.2287-5.3002-22.898-12.66-27.061-14.57-1.4677-0.67341-4.9407-2.3218-7.7178-3.6631l-5.0493-2.4387-7.3935 0.30304-7.3935 0.30304-2.679 2.0685c-5.348 4.1293-12.657 12.586-24.806 28.704-4.1949 5.565-7.8873 10.118-8.2054 10.118-1.1078 0-0.56234-1.7362 1.8679-5.9454 1.3454-2.3303 2.4462-4.3336 2.4462-4.4518 0-0.11827-0.4503-0.27963-1.0007-0.35859-0.70343-0.10088-0.96819-0.40738-0.89125-1.0316 0.0602-0.48844 2.4349-5.4611 5.277-11.05 4.6692-9.1822 5.3128-10.223 6.6731-10.791 0.82803-0.34598 1.5002-0.77647 1.4938-0.95665-0.007-0.18018-0.3817-1.7286-0.83392-3.4409-0.81019-3.0677-0.84696-3.1173-2.5093-3.389-2.5561-0.41774-3.598-2.3414-2.2596-4.1717 0.46188-0.63165 1.4506-0.91711 4.0299-1.1635 1.8798-0.17955 3.8955-0.63944 4.4793-1.022 0.58381-0.38253 2.6231-1.1184 4.5317-1.6353 2.0741-0.56169 3.9353-1.3765 4.6262-2.0254 1.0291-0.96643 1.1327-1.3398 0.94372-3.4017-0.11675-1.2738-0.3774-2.6357-0.57924-3.0263-0.9524-1.8432-6.3831-8.6831-8.3905-10.568-2.2129-2.0776-2.6473-2.877-1.836-3.3784 0.69198-0.42767 17.284 2.5608 18.859 3.3968 0.57509 0.30522 1.258 0.22036 2.3335-0.29002 1.4597-0.69266 1.7118-0.66743 6.3031 0.63085 7.4726 2.113 14.56 3.1521 24.574 3.6028 5.0146 0.2257 10.619 0.61096 12.453 0.85614 2.976 0.39771 3.4806 0.60947 4.6796 1.964 0.74684 0.84369 1.789 2.9001 2.3457 4.6285 1.2545 3.8952 2.406 5.4267 4.0801 5.4267 0.69093 0 3.2282 0.98585 5.6384 2.1908 3.8509 1.9252 5.0831 2.3018 10.164 3.1061 8.6796 1.3741 19.753 2.3198 26.241 2.2411 3.18-0.0386 6.1797 0.00071 6.6659 0.0876 0.71156 0.12695 0.99953-0.23275 1.476-1.8437 1.6615-5.6176 1.8276-5.8811 6.7449-10.698 8.0563-7.8916 22.035-16.514 30.336-18.711 4.0906-1.0829 10.61-1.2368 16.82-0.39701 1.8346 0.2481 4.8367 0.65475 6.6713 0.90367 2.2935 0.31117 5.5548 1.3449 10.438 3.3084l7.1026 2.8559 3.4981-2.0808c3.0698-1.826 3.6332-2.3665 4.6019-4.4142 0.60712-1.2834 0.98709-2.5223 0.84436-2.7532-0.35051-0.56714 1.4996-1.815 2.6909-1.815 0.52725 0 1.7125-0.315 2.634-0.70001 1.1855-0.49535 2.3061-0.61325 3.8328-0.40329 1.7594 0.24197 2.2084 0.16382 2.4339-0.42367 0.15204-0.39621 1.1382-1.2254 2.1914-1.8426 1.6014-0.93849 2.3749-1.1004 4.7246-0.9889 2.4119 0.11443 2.8295 0.25921 2.95 1.0228 0.0771 0.48923 0.4493 1.9163 0.82694 3.1713 0.5429 1.8042 0.57674 2.487 0.16165 3.2626-0.75178 1.4047-0.40478 1.4878 1.9672 0.47108 2.5748-1.1037 3.4679-1.1288 4.3538-0.12236 1.2062 1.3702 1.205 4.0574-0.004 9.3355-0.62978 2.7496-1.0294 5.1148-0.88807 5.2562 0.28547 0.28547 4.2169-0.79857 5.6206-1.5498 0.494-0.26439 1.751-1.7779 2.7934-3.3633 1.3924-2.1178 2.3921-3.1162 3.7678-3.7629 2.2298-1.0481 2.6148-2.1907 2.1621-6.4172-0.20308-1.8963-0.14112-2.9366 0.187-3.1393 0.85151-0.52627 0.55753-0.91807-2.0894-2.7848-3.3486-2.3615-9.4689-4.8788-13.295-5.4681-3.1838-0.49042-3.572-0.76683-5.6266-4.0064-0.54299-0.85616-1.7368-2.044-2.653-2.6398-3.0485-1.9822-2.615-4.1523 0.99127-4.9625 1.0268-0.23072 3.2041-1.3165 4.8383-2.4128 3.4347-2.3042 4.6178-2.4713 5.7398-0.81062 0.94867 1.4041 3.5161 3.9775 4.8932 4.9046 0.92021 0.61949 1.0671 0.5621 2.3762-0.92897 1.5231-1.7347 4.1424-2.7691 5.8969-2.3287 0.60859 0.15274 1.9466 0.97962 2.9734 1.8375s2.0127 1.4697 2.1909 1.3596c0.17818-0.11013 0.59242-1.0137 0.92055-2.0079 0.91644-2.7768 1.426-2.979 3.8818-1.5398 4.3083 2.5248 8.1319 7.127 8.1319 9.7877 0 0.47678-0.41976 1.65-0.93278 2.6072-0.80068 1.4939-0.94851 2.6269-1.0437 7.999l-0.1109 6.2586 2.4892 2.4636c3.1958 3.1629 7.8957 9.0249 9.6053 11.98 0.73385 1.2686 1.7975 3.0187 2.3636 3.8892 0.82228 1.2643 0.9704 1.9314 0.73638 3.3166-0.24853 1.471-0.0646 2.1192 1.2125 4.2744 3.3275 5.6153 3.318 6.7754-0.11108 13.624-1.7882 3.5711-2.6091 4.7613-3.4978 5.0711-0.63868 0.22265-1.6587 0.82995-2.2667 1.3496-0.608 0.51962-5.7087 4.073-11.335 7.8964-10.061 6.8371-11.924 8.1889-11.657 8.4563 0.0741 0.0741 1.226-0.15584 2.5601-0.51082 1.334-0.35497 4.7271-0.96662 7.5402-1.3592 4.3228-0.60328 5.7505-0.62984 9.2209-0.17152 5.0758 0.67035 6.302 1.6174 3.0895 2.3862-1.7695 0.42348-1.24 1.3578 0.8443 1.4899 5.2223 0.33085 15.277 3.647 20.751 6.8439 16.11 9.4085 25.6 24.877 26.448 43.107 0.94868 20.392-10.22 39.441-28.579 48.744-6.1035 3.0926-8.6417 4.0011-13.54 4.8463-5.9276 1.0228-15.769 1.3518-19.722 0.65931-6.2393-1.093-15.601-5.344-21.624-9.8194-4.5471-3.3788-10.897-10.221-13.493-14.538-2.8797-4.7891-5.3117-10.578-6.5894-15.685-0.92712-3.7058-1.0527-5.2092-1.0216-12.231 0.0312-7.042 0.16792-8.5008 1.1358-12.12 0.60517-2.2627 0.98899-4.1068 0.85293-4.098-0.13606 0.009-0.78008 0.45911-1.4312 1.0007-1.327 1.1038-4.2547 6.7264-8.5025 16.329-4.4739 10.113-4.2957 9.176-2.3914 12.581 2.3105 4.1315 2.2142 4.5307-1.5808 6.5534-1.6191 0.86298-2.719 0.8795-58.567 0.8795h-56.917l-2.2765 4.3532c-6.677 12.768-17.384 21.989-31.632 27.243-5.9315 2.187-15.468 3.2784-23.301 2.6667zm7.2273-21.608c0.98258-0.30637 0.59599-2.1546-0.9271-4.4324-0.81568-1.2198-2.1543-3.5895-2.9747-5.266s-1.8042-3.1538-2.1862-3.2828c-3.8872-1.3132-6.0716-2.715-8.7666-5.6258-1.599-1.7271-3.2931-3.8963-3.7645-4.8204-0.47144-0.9241-1.017-1.6802-1.2124-1.6802-0.19537 0-2.0926 1.7755-4.2161 3.9455-3.5623 3.6403-3.8609 4.0844-3.8609 5.7411 0 1.4659 0.36517 2.2438 1.9889 4.2371 3.4566 4.2433 7.625 7.2529 13.231 9.5528 4.5029 1.8473 9.8078 2.5293 12.688 1.6311zm233.35 0.41828c1.1386-0.43689 0.82632-1.4183-1.27-3.9917-1.0854-1.3325-2.0995-2.8196-2.2534-3.3046-0.29885-0.94157-0.5342-1.0196-5.3353-1.7682-1.7936-0.27966-4.3105-1.0907-5.9376-1.9132-3.4275-1.7327-7.7914-5.5828-8.9893-7.9309-0.48398-0.9487-1.096-1.7249-1.36-1.7249-0.75784 0-5.6272 5.0062-5.9446 6.1116-0.5916 2.0605 6.7326 8.3914 13.336 11.527 4.6002 2.1846 15.205 3.9734 17.755 2.9948zm-220.61-2.3784c4.6716-2.0025 8.6379-5.0238 13.078-9.9622 2.3353-2.5973 2.7797-3.3435 2.6685-4.4815-0.115-1.1771-0.31736-1.3724-1.4677-1.4166-0.73385-0.0282-1.7692-0.0782-2.3008-0.11119-0.53162-0.033-1.5884-0.58311-2.3483-1.2226-1.3814-1.1623-1.3827-1.1625-5.0376-0.60757-3.2787 0.4978-8.8047 2.7199-15.442 6.2096-1.0539 0.55411-0.60831 2.5274 1.5824 7.0076 2.7171 5.5568 4.7048 6.5401 9.2672 4.5844zm231.29-0.65722c4.6542-2.0583 9.098-5.6445 12.546-10.124 2.437-3.1668 5.9249-10.309 6.2621-12.823l0.25419-1.895-3.2916 0.31536c-5.336 0.51122-5.1603 0.39879-7.0647 4.521-1.3953 3.0201-2.3687 4.3563-5.25 7.2069-3.8323 3.7913-6.1392 5.3305-9.7678 6.5173-1.2842 0.42002-2.335 1.0258-2.335 1.3461 0 0.32036 0.90021 1.8053 2.0005 3.2999 2.3167 3.147 2.9032 3.2913 6.647 1.6356zm-10.823-14.066c-1.1789-0.98175-1.5473-0.92117-1.123 0.18463 0.15424 0.40193 0.70933 0.72414 1.2336 0.71599 0.93854-0.0146 0.93685-0.0283-0.1106-0.90062zm3.9546-0.34745c0-0.5024-2.2665-1.5112-2.6141-1.1636-0.34167 0.34167 1.2386 1.5369 2.032 1.5369 0.32017 0 0.58213-0.16801 0.58213-0.37336zm-13.794-0.84971c-0.003-0.42809-0.17887-1.0499-0.38916-1.3818-0.53467-0.84383-1.0789 0.12681-0.71466 1.2745 0.34688 1.0929 1.1131 1.1673 1.1038 0.10726zm5.7886-0.037c0-0.57911-0.52871-0.96425-0.9588-0.69844-0.45997 0.28429-0.0633 1.0691 0.5403 1.0691 0.23017 0 0.4185-0.16679 0.4185-0.37064zm10.874-0.91365c-0.65319-0.61029-2.4239-1.0478-2.4239-0.59883 0 0.67911 0.54431 0.9936 1.7197 0.9936 0.67687 0 0.95802-0.15761 0.70419-0.39477zm-19.658-1.5908c-0.11748-0.61453-0.39084-1.0078-0.60749-0.87387-0.45534 0.28142-0.52842 1.6872-0.10946 2.1061 0.54301 0.54302 0.92939-0.12105 0.71697-1.2323zm-19.522 0.17661c0.64292-0.50572 2.0966-2.1251 3.2304-3.5985 1.9825-2.5764 2.0512-2.7655 1.7941-4.9365-0.18458-1.5585-0.61539-2.6207-1.3914-3.4307-0.61824-0.6453-1.1241-1.5912-1.1241-2.102 0-0.51083-0.30022-1.044-0.66714-1.1848-0.9943-0.38154-0.80607-1.8616 0.33357-2.6229 0.95598-0.63859 0.96616-0.70692 0.22766-1.5289-0.42518-0.47323-0.89544-1.4724-1.045-2.2204-0.21987-1.0994-0.0724-1.4998 0.76931-2.0894 0.96695-0.67729 1.0416-1.0306 1.045-4.9486 0.003-3.5456-0.10813-4.2192-0.69706-4.2192-1.0481 0-2.3062 1.6043-4.3379 5.5313-1.3716 2.6511-1.7055 3.6753-1.3414 4.114 0.26663 0.32127 0.75107 0.58413 1.0765 0.58413 1.2136 0 2.8892 1.0628 2.7545 1.7471-0.1067 0.54227-0.73401 0.69904-2.7971 0.69904h-2.6595l-0.34827 3.7804c-0.43069 4.675-0.13739 8.1853 1.0385 12.429 1.462 5.276 1.9342 5.7319 4.1392 3.9975zm34.933-1.2004c2.1243-1.0556 2.3564-1.9587 0.41288-1.6069-2.0294 0.36734-4.5049 1.5938-4.741 2.3488-0.24632 0.78766 2.038 0.39611 4.3282-0.74189zm6.8595 0.55207c0.0428-0.2385-0.47255-0.49696-1.1452-0.57437-1.3366-0.15378-1.7011 0.61943-0.44476 0.94328 1.0311 0.26578 1.4954 0.15805 1.59-0.36891zm-24.606-1.8204c0-0.62801-0.19355-0.99227-0.44475-0.83701-0.24462 0.15117-0.44475 0.77521-0.44475 1.3868 0 0.628 0.19355 0.99227 0.44475 0.83701 0.24461-0.15117 0.44475-0.77521 0.44475-1.3868zm-247.2-0.31731c6.9891-7.0105 7.9261-8.3428 7.9261-11.269 0-3.7739 2.2736-8.6265 5.2259-11.154 1.2842-1.0994 2.335-2.2605 2.335-2.5802 0-0.31971-1.9122-1.7223-4.2493-3.1169-4.5052-2.6883-6.6151-3.183-8.7358-2.048-1.6305 0.87261-3.8718 4.6263-5.5988 9.3769-1.3031 3.5846-1.5842 5.0293-1.7717 9.1058-0.25714 5.5921 0.43707 10.38 1.7464 12.044 0.48587 0.61768 1.0548 1.1231 1.2642 1.1231 0.20944 0 1.0455-0.66675 1.8579-1.4817zm274.11-0.29737c0.15864-0.25667-0.25346-0.44188-0.97445-0.43794-0.97006 0.005-1.1002 0.10319-0.5822 0.43794 0.85451 0.55223 1.2154 0.55223 1.5566 0zm-28.242-2.9759c0-0.32017-0.17874-0.58213-0.39718-0.58213-0.46938 0-0.9429 1.1025-0.92295 2.149 0.0122 0.64002 0.10385 0.62335 0.66714-0.12138 0.35914-0.47484 0.65299-1.1253 0.65299-1.4455zm4.0232 0.34548c-0.27304-0.51019-0.70135-0.92761-0.95179-0.92761-0.44918 0-0.23852 0.57099 0.61927 1.6786 0.65956 0.85163 0.89982 0.30902 0.33252-0.75097zm23.743 0.0123c0.13405-0.2169-0.0365-0.6269-0.37891-0.91111-0.69325-0.57535-1.4032 0.0858-0.92421 0.86071 0.34032 0.55067 0.97867 0.57535 1.3031 0.0504zm-20.65-3.1637c0-0.24462-0.20014-0.44476-0.44476-0.44476s-0.44476 0.20014-0.44476 0.44476c0 0.24461 0.20014 0.44476 0.44476 0.44476s0.44476-0.20015 0.44476-0.44476zm8.5666-1.8902c0.21482-0.62738-0.90662-2.5573-1.486-2.5573-0.58934 0-1.3948 1.7768-1.1246 2.4809 0.29923 0.77975 2.3492 0.83978 2.6106 0.0764zm10.558-1.8875c0-0.82579-0.21163-2.0581-0.47029-2.7384-0.37651-0.99028-0.55254-1.1069-0.88271-0.5849-0.91729 1.4503-0.13195 5.7425 0.93055 5.0858 0.23235-0.1436 0.42245-0.93674 0.42245-1.7625zm17.123 0.84347c2.8465-0.47382 3.3357-0.88944 3.3357-2.8342 0-2.011-1.0358-7.2534-2.0677-10.465-1.1262-3.5053-4.7364-9.0901-7.8006-12.067-5.8308-5.6652-9.0942-7.0274-8.3823-3.4991 0.0494 0.24462-0.15695 2.0305-0.45845 3.9687l-0.54818 3.5239 1.2894 1.0734c4.113 3.4238 6.0415 5.682 7.6134 8.9146 1.4408 2.9629 1.6867 3.931 1.8298 7.2033 0.185 4.2294 0.57247 5.0368 2.2576 4.7049 0.63372-0.12482 1.9528-0.36019 2.9312-0.52307zm-13.111-0.85692c0.9165-1.1043 0.0519-1.3596-1.0096-0.29812-0.78438 0.78439-0.8363 0.976-0.26448 0.976 0.39134 0 0.96468-0.30505 1.2741-0.67788zm-31.587-2.9872c0-0.45699-0.34017-0.42503-1.376 0.12931-0.48 0.25689-0.75777 0.65307-0.61727 0.8804 0.27379 0.44301 1.9932-0.428 1.9932-1.0097zm31.308-0.4541c0.67225-1.0657-0.13379-1.5946-0.87836-0.57628-0.34693 0.47444-0.63078 1.0412-0.63078 1.2594 0 0.59503 0.98381 0.14969 1.5091-0.68316zm-28.195-0.5508c0-0.36693-0.30021-0.66713-0.66713-0.66713-0.36693 0-0.66713 0.3002-0.66713 0.66713 0 0.36692 0.3002 0.66714 0.66713 0.66714 0.36692 0 0.66713-0.30022 0.66713-0.66714zm27.042-2.6526c0.60455-1.3268-0.10407-1.986-0.77904-0.72472-0.25689 0.48001-0.46707 1.086-0.46707 1.3467 0 0.86122 0.73819 0.49273 1.2461-0.62201zm-1.6977-3.4628c0.009-1.0601-0.75694-0.98568-1.1038 0.10726-0.36427 1.1477 0.17998 2.1184 0.71465 1.2746 0.2103-0.33188 0.38543-0.95367 0.38917-1.3818zm-2.8841-0.77832c-0.21518-0.34817-0.47102-0.37401-0.76753-0.0775-0.24462 0.24462-0.2995 0.67978-0.12197 0.96703 0.21517 0.34817 0.47102 0.37401 0.76752 0.0775 0.24462-0.24462 0.29951-0.67977 0.12198-0.96702zm-5.1147-3.3094c0-0.10792-0.20013-0.31983-0.44474-0.471-0.24462-0.15119-0.44476-0.063-0.44476 0.19612 0 0.25905 0.20014 0.47101 0.44476 0.47101 0.24461 0 0.44474-0.0883 0.44474-0.19613zm-7.0589-1.7234c-0.50711-0.50712-1.0598-0.78426-1.2282-0.61589-0.42833 0.42834 1.1935 2.1292 1.72 1.8038 0.23973-0.14816 0.022-0.67407-0.49184-1.1879zm3.9456 1.03c0-0.24462-0.20014-0.44476-0.44476-0.44476-0.24461 0-0.44474 0.20014-0.44474 0.44476s0.20013 0.44476 0.44474 0.44476c0.24462 0 0.44476-0.20014 0.44476-0.44476zm-233.06-2.77c-0.003-0.30578-0.13353-1.0322-0.28932-1.6143-0.27427-1.0248-0.38262-1.0491-3.4148-0.7673-1.7223 0.16008-3.2218 0.38132-3.3321 0.49165-0.49512 0.49513 1.0571 1.5594 2.3156 1.5876 0.76505 0.0172 1.7913 0.20327 2.2805 0.4135 1.3242 0.56903 2.447 0.51787 2.4401-0.11119zm208.1 0.1541c0.71759-0.45452 0.28936-1.3772-0.63917-1.3772-0.35249 0-0.64089 0.40029-0.64089 0.88952 0 0.96561 0.32812 1.0906 1.2801 0.48767zm7.6151-1.8219c0-0.24461-0.20013-0.44476-0.44475-0.44476-0.24461 0-0.44476 0.20015-0.44476 0.44476 0 0.24462 0.20015 0.44475 0.44476 0.44475 0.24462 0 0.44475-0.20013 0.44475-0.44475zm-215.4-3.57c6.0615-0.7387 11.26-1.4287 11.552-1.5333 0.90046-0.32224 1.1555-3.0671 0.44334-4.7715-2.2574-5.4027-17.661-5.7213-27.882-0.57666-5.5737 2.8053-5.7434 4.3521-0.73354 6.6855 1.7488 0.81454 3.7242 1.494 4.3896 1.51 0.66548 0.0159 6.1693-0.57539 12.231-1.3141zm212.72 0.65387c0-0.59379-1.3961-2.8688-1.7605-2.8688-0.22186 0-0.54145 0.43507-0.71023 0.96681-0.2144 0.67557-0.0639 1.1445 0.4998 1.5566 0.8135 0.59485 1.9709 0.79767 1.9709 0.34537zm26.889-1.4234c0.1645-0.42809 0.4125-2.383 0.55111-4.3443 0.19844-2.8076 0.11444-3.6802-0.39501-4.103-1.056-0.87639-5.9711-1.9527-8.2499-1.8066l-2.1171 0.13574 0.11067 1.7782c0.0609 0.97799-0.1893 2.81-0.55594 4.0712-1.0698 3.6801-1.0542 3.7078 2.1131 3.7486 1.5288 0.0197 3.6804 0.29376 4.7811 0.60905 2.8266 0.80962 3.4221 0.79555 3.762-0.0889zm-31.337-2.2215c0-0.54259-0.12454-0.56377-0.66713-0.11347-0.36692 0.30452-0.66713 0.85389-0.66713 1.2208 0 0.54258 0.12455 0.56377 0.66713 0.11347 0.36693-0.30452 0.66713-0.85389 0.66713-1.2208zm-164.36-7.19c0.28382-0.45923-3.2186-3.3935-3.5979-3.0143-0.34933 0.34933 2.1803 3.4199 2.8174 3.42 0.29134 0.00001 0.64254-0.18256 0.78045-0.4057zm13.589-4.6571c0-1.5718 0.67648-2.0331 3.0021-2.0472 1.1426-0.007 1.3217-0.96505 0.33356-1.7851-0.36693-0.30452-0.66713-0.81509-0.66713-1.1346 0-0.94433-1.3136-1.9787-2.5129-1.9787-1.162 0-8.8153 3.3031-9.8889 4.268-0.50695 0.45562 0.004 0.87011 2.8909 2.3457 2.1795 1.1139 4.1379 1.8007 5.1745 1.8145 1.603 0.0213 1.6678-0.0363 1.6678-1.4826zm-9.133-6.9384c2.6108-1.2191 4.6322-2.4021 4.4921-2.6288-0.24355-0.39407-8.927-5.384-9.3692-5.384-0.28292 0-4.225 7.8629-4.225 8.4273 0 0.5963 2.2223 1.7623 3.4007 1.7843 0.52498 0.01 3.0906-0.97965 5.7014-2.1988zm120.97-59.605c1.5139-1.656 2.575-3.4665 2.296-3.9178-0.1356-0.2194-1.7039-0.40429-3.4852-0.41087-3.2008-0.0119-4.805 0.60462-4.789 1.8403 0.003 0.26785 1.0542 1.6778 2.335 3.1332 2.1547 2.4485 2.3398 2.5648 2.4777 1.5566 0.082-0.59927 0.60643-1.5899 1.1655-2.2015zm20.626-5.2259c1.4796-4.5463 1.2625-5.3351-1.3129-4.7694-1.2794 0.28102-1.3513 0.40274-1.1352 1.9232 0.69286 4.8743 0.88694 5.8484 1.1652 5.8484 0.1682 0 0.74549-1.351 1.2829-3.0021zm2.2984-6.7825c0-0.56605-0.29651-0.88951-0.81538-0.88951-1.3122 0-1.5173 0.57593-0.42165 1.1842 1.3038 0.72383 1.237 0.73974 1.237-0.2947zm27.655-8.4836c0.45193-2.1168 0.0611-3.1629-1.1189-2.9948-0.76441 0.10891-0.99129 0.48675-1.1024 1.836-0.24832 3.0159 1.6171 3.989 2.2213 1.1588z"/>
 </g>
</svg>
